<svg viewBox="0 0 100 100" xmlns="http://www.w3.org/2000/svg">
  <defs>
    <linearGradient id="dsGradient" x1="0%" y1="0%" x2="100%" y2="100%">
      <stop offset="0%" style="stop-color:#00D9FF"/>
      <stop offset="100%" style="stop-color:#8B5CF6"/>
    </linearGradient>
  </defs>
  <rect width="100" height="100" rx="20" fill="#0a0a0a"/>
  <g fill="none" stroke="url(#dsGradient)" stroke-width="4" stroke-linecap="round" stroke-linejoin="round">
    <!-- D letter -->
    <path d="M20 20 L20 80 L40 80 Q60 80 60 50 Q60 20 40 20 L20 20"/>
    <!-- S letter merged with D -->
    <path d="M50 25 L75 25 Q85 25 85 35 Q85 45 75 50 L60 50 Q50 50 50 60 Q50 70 60 75 L80 75"/>
    <!-- Circuit nodes -->
    <circle cx="20" cy="35" r="3" fill="url(#dsGradient)"/>
    <circle cx="75" cy="50" r="3" fill="url(#dsGradient)"/>
    <circle cx="60" cy="75" r="3" fill="url(#dsGradient)"/>
    <!-- Circuit lines -->
    <line x1="20" y1="35" x2="12" y2="35"/>
    <line x1="75" y1="50" x2="88" y2="50"/>
  </g>
</svg>
